<svg width="80" height="80" viewBox="0 0 80 80" xmlns="http://www.w3.org/2000/svg" xmlns:xlink="http://www.w3.org/1999/xlink"><defs><rect id="a" width="80" height="80" rx="1"/></defs><g fill="none" fill-rule="evenodd"><mask id="b" fill="#fff"><use xlink:href="#a"/></mask><use fill="#FFF" xlink:href="#a"/><g transform="translate(0 4)" mask="url(#b)"><path fill="#D4D4D4" d="M0 8h80v9H0z"/><rect fill="#F2F2F2" x="4" width="72" height="4" rx="2"/></g><g mask="url(#b)"><path fill="#9DC6D8" d="M4 25h15v15H4z"/><path d="M4 25h15v22H4V25zm1 1h13v20H5V26z" fill="#000" fill-opacity=".15"/></g><g mask="url(#b)"><path fill="#00B2CA" d="M23 25h15v15H23z"/><path d="M23 25h15v22H23V25zm1 1h13v20H24V26z" fill="#000" fill-opacity=".15"/></g><g mask="url(#b)"><path fill="#7DCFB6" d="M42 25h15v15H42z"/><path d="M42 25h15v22H42V25zm1 1h13v20H43V26z" fill="#000" fill-opacity=".15"/></g><g mask="url(#b)"><path fill="#F79256" d="M61 25h15v15H61z"/><path d="M61 25h15v22H61V25zm1 1h13v20H62V26z" fill="#000" fill-opacity=".15"/></g><g mask="url(#b)"><path fill="#EAD98B" d="M4 51h15v15H4z"/><path d="M4 51h15v22H4V51zm1 1h13v20H5V52z" fill="#000" fill-opacity=".15"/></g><g mask="url(#b)"><path fill="#E3868F" d="M23 51h15v15H23z"/><path d="M23 51h15v22H23V51zm1 1h13v20H24V52z" fill="#000" fill-opacity=".15"/></g><g mask="url(#b)"><path fill="#888688" d="M42 51h15v15H42z"/><path d="M42 51h15v22H42V51zm1 1h13v20H43V52z" fill="#000" fill-opacity=".15"/></g><g mask="url(#b)"><path fill="#9DC6D8" d="M61 51h15v15H61z"/><path d="M61 51h15v22H61V51zm1 1h13v20H62V52z" fill="#000" fill-opacity=".15"/></g></g></svg>