<svg width="80" height="80" viewBox="0 0 80 80" xmlns="http://www.w3.org/2000/svg" xmlns:xlink="http://www.w3.org/1999/xlink"><defs><rect id="a" width="80" height="80" rx="1"/></defs><g fill="none" fill-rule="evenodd"><mask id="b" fill="#fff"><use xlink:href="#a"/></mask><use fill="#FFF" xlink:href="#a"/><g transform="translate(0 4)" mask="url(#b)"><path fill="#D4D4D4" d="M0 8h80v9H0z"/><rect fill="#F2F2F2" x="4" width="72" height="4" rx="2"/></g><g mask="url(#b)"><path fill="#9DC6D8" d="M7 28h6v6H7z"/><path d="M4 26.0024733C4 25.44882257 4.45492426 25 4.99914214 25H37.0008579C37.5526688 25 38 25.45576096 38 26.0024733v9.9950534C38 36.5511774 37.5450757 37 37.0008579 37H4.99914214C4.44733117 37 4 36.544239 4 35.9975267v-9.9950534zM5 26h32v10H5V26z" fill="#000" fill-opacity=".25"/><path d="M15.5 28.5h12" stroke="#BCBCBC" stroke-linecap="square"/></g><g mask="url(#b)"><path fill="#00B2CA" d="M45 28h6v6h-6z"/><path d="M42 26.0024733C42 25.44882257 42.45492426 25 42.99914214 25H75.0008579C75.5526688 25 76 25.45576096 76 26.0024733v9.9950534C76 36.5511774 75.5450757 37 75.0008579 37H42.99914214C42.44733117 37 42 36.544239 42 35.9975267v-9.9950534zM43 26h32v10H43V26z" fill="#000" fill-opacity=".25"/><path d="M53.5 28.5h12" stroke="#BCBCBC" stroke-linecap="square"/></g><g mask="url(#b)"><path fill="#7DCFB6" d="M7 44h6v6H7z"/><path d="M4 42.0024733C4 41.44882257 4.45492426 41 4.99914214 41H37.0008579C37.5526688 41 38 41.45576096 38 42.0024733v9.9950534C38 52.5511774 37.5450757 53 37.0008579 53H4.99914214C4.44733117 53 4 52.544239 4 51.9975267v-9.9950534zM5 42h32v10H5V42z" fill="#000" fill-opacity=".25"/><path d="M15.5 44.5h12" stroke="#BCBCBC" stroke-linecap="square"/></g><g mask="url(#b)"><path fill="#F79256" d="M45 44h6v6h-6z"/><path d="M42 42.0024733C42 41.44882257 42.45492426 41 42.99914214 41H75.0008579C75.5526688 41 76 41.45576096 76 42.0024733v9.9950534C76 52.5511774 75.5450757 53 75.0008579 53H42.99914214C42.44733117 53 42 52.544239 42 51.9975267v-9.9950534zM43 42h32v10H43V42z" fill="#000" fill-opacity=".25"/><path d="M53.5 44.5h12" stroke="#BCBCBC" stroke-linecap="square"/></g><g mask="url(#b)"><path fill="#EAD98B" d="M7 60h6v6H7z"/><path d="M4 58.0024733C4 57.44882257 4.45492426 57 4.99914214 57H37.0008579C37.5526688 57 38 57.45576096 38 58.0024733v9.9950534C38 68.5511774 37.5450757 69 37.0008579 69H4.99914214C4.44733117 69 4 68.544239 4 67.9975267v-9.9950534zM5 58h32v10H5V58z" fill="#000" fill-opacity=".25"/><path d="M15.5 60.5h12" stroke="#BCBCBC" stroke-linecap="square"/></g><g mask="url(#b)"><path fill="#E3868F" d="M45 60h6v6h-6z"/><path d="M42 58.0024733C42 57.44882257 42.45492426 57 42.99914214 57H75.0008579C75.5526688 57 76 57.45576096 76 58.0024733v9.9950534C76 68.5511774 75.5450757 69 75.0008579 69H42.99914214C42.44733117 69 42 68.544239 42 67.9975267v-9.9950534zM43 58h32v10H43V58z" fill="#000" fill-opacity=".25"/><path d="M53.5 60.5h12" stroke="#BCBCBC" stroke-linecap="square"/></g><g mask="url(#b)"><path fill="#888688" d="M7 76h6v6H7z"/><path d="M4 74.0024733C4 73.44882257 4.45492426 73 4.99914214 73H37.0008579C37.5526688 73 38 73.45576096 38 74.0024733v9.9950534C38 84.5511774 37.5450757 85 37.0008579 85H4.99914214C4.44733117 85 4 84.544239 4 83.9975267v-9.9950534zM5 74h32v10H5V74z" fill="#000" fill-opacity=".25"/><path d="M15.5 76.5h12" stroke="#D9D9D9" stroke-linecap="square"/></g><g mask="url(#b)"><path fill="#9DC6D8" d="M45 76h6v6h-6z"/><path d="M42 74.0024733C42 73.44882257 42.45492426 73 42.99914214 73H75.0008579C75.5526688 73 76 73.45576096 76 74.0024733v9.9950534C76 84.5511774 75.5450757 85 75.0008579 85H42.99914214C42.44733117 85 42 84.544239 42 83.9975267v-9.9950534zM43 74h32v10H43V74z" fill="#000" fill-opacity=".25"/><path d="M53.5 76.5h12" stroke="#BCBCBC" stroke-linecap="square"/></g></g></svg>