<svg width="80" height="80" viewBox="0 0 80 80" xmlns="http://www.w3.org/2000/svg" xmlns:xlink="http://www.w3.org/1999/xlink"><defs><rect id="a" width="80" height="80" rx="1"/></defs><g fill="none" fill-rule="evenodd"><mask id="b" fill="#fff"><use xlink:href="#a"/></mask><use fill="#FFF" xlink:href="#a"/><g transform="translate(0 4)" mask="url(#b)"><path fill="#D4D4D4" d="M0 8h80v9H0z"/><rect fill="#F2F2F2" x="4" width="72" height="4" rx="2"/></g><g mask="url(#b)"><path fill="#9DC6D8" d="M4 25h15v25H4z"/><path d="M4 25h15v32H4V25zm1 1h13v30H5V26z" fill-opacity=".15" fill="#000"/></g><g mask="url(#b)"><path fill="#00B2CA" d="M23 25h15v15H23z"/><path d="M23 25h15v22H23V25zm1 1h13v20H24V26z" fill-opacity=".15" fill="#000"/></g><g mask="url(#b)"><path fill="#7DCFB6" d="M42 25h15v9H42z"/><path d="M42 25h15v16H42V25zm1 1h13v14H43V26z" fill-opacity=".15" fill="#000"/></g><g mask="url(#b)"><path fill="#B38FB1" d="M42 70h15v10H42z"/><path d="M42 70h15v16H42V70zm1 1h13v10H43V71z" fill-opacity=".15" fill="#000"/><path d="M44.5 82.5h5-5zm0-2h8-8z" stroke="#BDBDBD" stroke-linecap="square"/></g><g mask="url(#b)"><path fill="#D2B29A" d="M23 74h15v9H23z"/><path d="M23 74h15v16H23V74zm1 1h13v5H24v-5z" fill-opacity=".15" fill="#000"/></g><g mask="url(#b)"><path fill="#F79256" d="M61 25h15v24H61z"/><path d="M61 25h15v24H61V25zm1 1h13v22H62V26z" fill-opacity=".15" fill="#000"/></g><g mask="url(#b)"><path fill="#EAD98B" d="M4 61h15v15H4z"/><path d="M4 61h15v22H4V61zm1 1h13v18H5V62z" fill-opacity=".15" fill="#000"/></g><g mask="url(#b)"><path fill="#E3868F" d="M23 51h15v19H23z"/><path d="M23 51h15v19H23V51zm1 1h13v17H24V52z" fill-opacity=".15" fill="#000"/></g><g mask="url(#b)"><path fill="#888688" d="M42 45h15v14H42z"/><path d="M42 45h15v21H42V45zm1 1h13v19H43V46z" fill-opacity=".15" fill="#000"/></g><g mask="url(#b)"><path fill="#9DC6D8" d="M61 53h15v15H61z"/><path d="M61 53h15v22H61V53zm1 1h13v20H62V54z" fill-opacity=".15" fill="#000"/></g></g></svg>