<svg width="80" height="80" viewBox="0 0 80 80" xmlns="http://www.w3.org/2000/svg" xmlns:xlink="http://www.w3.org/1999/xlink"><defs><rect id="a" width="80" height="80" rx="1"/></defs><g fill="none" fill-rule="evenodd"><mask id="b" fill="#fff"><use xlink:href="#a"/></mask><use fill="#FFF" xlink:href="#a"/><g transform="translate(0 4)" mask="url(#b)"><path fill="#D4D4D4" d="M0 8h80v9H0z"/><rect fill="#F2F2F2" x="4" width="72" height="4" rx="2"/></g><path d="M4 26.0066986C4 25.4507143 4.44111623 25 4.9904144 25h70.0191712C75.5565764 25 76 25.4500399 76 26.0066986v55.9866028C76 82.5492857 75.5588838 83 75.0095856 83H4.9904144C4.44342363 83 4 82.5499601 4 81.9933014V26.0066986zM5 26h70v54H5V26z" fill-opacity=".25" fill="#000" mask="url(#b)"/><g transform="translate(5 28)" mask="url(#b)"><rect fill="#9DC6D8" x="2" width="5" height="5" rx="40"/><path d="M9.5 2.5h28" stroke="#BCBCBC" stroke-linecap="square"/><path d="M.5 7.5h69.0299988" stroke="#D9D9D9" stroke-linecap="square"/></g><g transform="translate(5 38)" mask="url(#b)"><rect fill="#00B2CA" x="2" width="5" height="5" rx="40"/><path d="M9.5 2.5h18" stroke="#BCBCBC" stroke-linecap="square"/><path d="M.5 7.5h69.0299988" stroke="#D9D9D9" stroke-linecap="square"/></g><g transform="translate(5 48)" mask="url(#b)"><rect fill="#7DCFB6" x="2" width="5" height="5" rx="40"/><path d="M9.5 2.5h38" stroke="#BCBCBC" stroke-linecap="square"/><path d="M.5 7.5h69.0299988" stroke="#D9D9D9" stroke-linecap="square"/></g><g transform="translate(5 58)" mask="url(#b)"><rect fill="#F79256" x="2" width="5" height="5" rx="40"/><path d="M9.5 2.5h22" stroke="#BCBCBC" stroke-linecap="square"/><path d="M.5 7.5h69.0299988" stroke="#D9D9D9" stroke-linecap="square"/></g><g transform="translate(5 68)" mask="url(#b)"><rect fill="#E3868F" x="2" width="5" height="5" rx="40"/><path d="M9.5 2.5h14" stroke="#BCBCBC" stroke-linecap="square"/><path d="M.5 7.5h69.0299988" stroke="#D9D9D9" stroke-linecap="square"/></g><g transform="translate(5 78)" mask="url(#b)"><rect fill="#B38FB1" x="2" width="5" height="5" rx="40"/><path d="M9.5 2.5h14" stroke="#BCBCBC" stroke-linecap="square"/></g></g></svg>