<svg width="75" height="108" viewBox="0 0 75 108" xmlns="http://www.w3.org/2000/svg"><g fill="none" fill-rule="evenodd"><path d="M46.5 32.5V.515625 32.5h28-28zm0 0v.0508384V32.5h-.0178514H46.5zM.5 3.50164503C.5 1.84388225 1.84150648.5 3.49732074.5H47L74.5 32v72.49372c0 1.660322-1.3475781 3.00628-2.9925396 3.00628H3.49253964C1.83980564 107.5.5 106.147125.5 104.498355V3.50164503z" stroke="#EF4B1E"/><path d="M20.5 53.545166h13.0160543L37.5251465 41.5l3.9711914 12.2248535h13.0628583L43.9443359 61.404541l4.05542 12.0839844-10.5119629-7.4824219-10.315918 7.5007324 3.96875-12.1918945L20.5 53.545166z" stroke="#EF4415" stroke-linecap="round" stroke-linejoin="round"/></g></svg>
