<svg width="81" height="109" viewBox="0 0 81 109" xmlns="http://www.w3.org/2000/svg"><path d="M23.5 12.5V.515625 12.5h11.002149H23.5zm0 0v.0508384V12.5h-.0178514H23.5zM.5 3.49140827C.5 1.8392991 1.84786683.5 3.50016086.5H24L34.5 12v34.4946077C34.5 48.15444 33.1566876 49.5 31.4976416 49.5H3.50235843C1.84420165 49.5.5 48.1639557.5 46.5085917V3.49140827zM68.5 71.5V59.515625 71.5h11.002149H68.5zm0 0v.0508384V71.5h-.0178514H68.5zm-23-9.0085917C45.5 60.8392991 46.8478668 59.5 48.5001609 59.5H69L79.5 71v34.494608c0 1.659832-1.3433124 3.005392-3.0023584 3.005392H48.5023584C46.8442017 108.5 45.5 107.163956 45.5 105.508592V62.4914083zM68.5 12.5V.515625 12.5h11.002149H68.5zm0 0v.0508384V12.5h-.0178514H68.5zm-23-9.00859173C45.5 1.8392991 46.8478668.5 48.5001609.5H69L79.5 12v34.4946077C79.5 48.15444 78.1566876 49.5 76.4976416 49.5H48.5023584C46.8442017 49.5 45.5 48.1639557 45.5 46.5085917V3.49140827z" stroke-opacity=".25" stroke="#000" fill="none"/></svg>
