<svg width="280" height="100" viewBox="0 0 280 100" xmlns="http://www.w3.org/2000/svg"><g transform="translate(1 1)" fill="none" fill-rule="evenodd"><circle stroke-opacity=".3" stroke="#000" stroke-dasharray="2,4" fill="#FFF" cx="49" cy="49" r="49"><animateTransform attributeName="transform" type="rotate" from="0 49 49" to="360 49 49" dur="20s" repeatCount="indefinite"/></circle><circle stroke-opacity=".3" stroke="#000" stroke-dasharray="2,4" fill="#FFF" cx="139" cy="49" r="49"><animateTransform xmlns="http://www.w3.org/2000/svg" attributeName="transform" type="rotate" from="0 139 49" to="360 139 49" dur="20s" repeatCount="indefinite"/></circle><circle stroke-opacity=".3" stroke="#000" stroke-dasharray="2,4" fill="#FFF" cx="229" cy="49" r="49"><animateTransform xmlns="http://www.w3.org/2000/svg" attributeName="transform" type="rotate" from="0 229 49" to="360 229 49" dur="20s" repeatCount="indefinite"/></circle><g stroke="#4A90E2"><path d="M238.5 20.5h-31v57h44v-43l-13-14z" stroke-linecap="round" stroke-linejoin="round" fill="#FFF"/><path d="M237.5 20.5v14h14m-35 1h9m-9 22h17m3-7h7m-27-7h5m10 0h7m-17 7h10m5 14h7m-22 0h10"/></g><path d="M24 24h48v50H24V24z" fill="#FFF"/><path d="M24.5 24.5h47v49h-47v-49z" stroke="#4990E2"/><path d="M40.569 41.569c0 2.523-2.046 4.569-4.569 4.569s-4.569-2.046-4.569-4.569S33.477 37 36 37s4.569 2.046 4.569 4.569z" fill="#EBF5FF"/><path d="M40.569 41.569c0 2.523-2.046 4.569-4.569 4.569s-4.569-2.046-4.569-4.569S33.477 37 36 37s4.569 2.046 4.569 4.569z" stroke="#4990E2"/><path d="M26 64l17.017-14.983 10.966 10.966M48.5 54.5L59 43l12 11" stroke="#4990E2" stroke-linecap="round" stroke-linejoin="round"/><path d="M24 64h48v10H24V64z" fill="#EBF5FF"/><path d="M24.5 63.5h47v10h-47v-10z" stroke="#4990E2"/><path d="M136.827 48.827c-4.276-4.276-4.276-11.273 0-15.549l9.071-9.071c4.276-4.276 11.273-4.276 15.549 0s4.276 11.274 0 15.55l-9.07 9.07c-4.276 4.276-11.274 4.276-15.55 0z" fill="#C6E3F8"/><path d="M136.827 48.827c-4.276-4.276-4.276-11.273 0-15.549l9.071-9.071c4.276-4.276 11.273-4.276 15.549 0s4.276 11.274 0 15.55l-9.07 9.07c-4.276 4.276-11.274 4.276-15.55 0z" stroke="#0F81E0"/><path d="M112.207 73.447c-4.276-4.276-4.276-11.273 0-15.549l9.071-9.071c4.276-4.276 11.273-4.276 15.549 0s4.276 11.274 0 15.55l-9.07 9.07c-4.277 4.276-11.274 4.276-15.55 0z" fill="#C6E3F8"/><path d="M112.207 73.447c-4.276-4.276-4.276-11.273 0-15.549l9.071-9.071c4.276-4.276 11.273-4.276 15.549 0s4.276 11.274 0 15.55l-9.07 9.07c-4.277 4.276-11.274 4.276-15.55 0zm33.951-33.951l-18.662 18.662" stroke="#0F81E0"/></g></svg>