<svg width="60" height="54" viewBox="0 0 60 54" xmlns="http://www.w3.org/2000/svg"><path d="M50 39h-2.995118C45.897616 39 45 38.102974 45 36.995053V17.004947C45 15.897645 45.8939 15 47.004882 15H50m-30.985357 4.434643C17.146139 21.406217 16 24.069261 16 27c0 2.931136 1.146449 5.594503 3.015401 7.566157l2.328274-2.328784-2.328274 2.328784C21.020077 36.680992 23.856003 38 27 38c6.075132 0 11-4.924868 11-11s-4.924868-11-11-11c-3.144393 0-5.980638 1.31934-7.985357 3.434643l2.329032 2.329032-2.329032-2.329032zM3 30v-6h5v6H3zm0 12v8.993401C3 52.097443 3.892328 53 4.99307 53h52.01386C58.097692 53 59 52.101615 59 50.993401V3.006599C59 1.902557 58.107672 1 57.00693 1H4.99307C3.902308 1 3 1.898385 3 3.006599V12h5V6h46v42H8v-6H3zm46-23.5v17.1-17.1zM1 14.00853C1 12.89925 1.895858 12 2.997392 12h5.005216C9.105737 12 10 12.90195 10 14.00853v7.98294C10 23.10075 9.104142 24 8.002608 24H2.997392C1.894263 24 1 23.09805 1 21.99147v-7.98294zm0 18C1 30.89925 1.895858 30 2.997392 30h5.005216C9.105737 30 10 30.90195 10 32.00853v7.98294C10 41.10075 9.104142 42 8.002608 42H2.997392C1.894263 42 1 41.09805 1 39.99147v-7.98294zM27 31c2.209139 0 4-1.790861 4-4s-1.790861-4-4-4-4 1.790861-4 4 1.790861 4 4 4zm0-14.333333v2.666666-2.666666zm0 18v2.666666-2.666666zM34.5 27h3.16-3.16zm-18 0h3.16-3.16zm17.843675 7.763675l-1.52735-1.52735 1.52735 1.52735zm0-15.52735l-1.52735 1.52735 1.52735-1.52735z" stroke="#3696EA" stroke-width="2" fill="none"/></svg>
