<?xml version="1.0" encoding="UTF-8" standalone="no"?>
<svg width="96px" height="12px" viewBox="0 0 96 12" version="1.1" xmlns="http://www.w3.org/2000/svg" xmlns:xlink="http://www.w3.org/1999/xlink" xmlns:sketch="http://www.bohemiancoding.com/sketch/ns">
    <!-- Generator: Sketch 3.3.1 (12002) - http://www.bohemiancoding.com/sketch -->
    <title>logo-text</title>
    <desc>Created with Sketch.</desc>
    <defs></defs>
    <g id="Page-1" stroke="none" stroke-width="1" fill="none" fill-rule="evenodd" sketch:type="MSPage">
        <g id="Home" sketch:type="MSArtboardGroup" transform="translate(-73.000000, -34.000000)" fill="#000000">
            <g id="sidebar" sketch:type="MSLayerGroup" transform="translate(-9.000000, 1.000000)">
                <g id="logo-text" transform="translate(82.000000, 33.000000)" sketch:type="MSShapeGroup">
                    <path d="M92.5,7 C94.4329966,7 96,5.43299662 96,3.5 C96,1.56700338 94.4329966,0 92.5,0 C90.5670034,0 89,1.56700338 89,3.5 C89,5.43299662 90.5670034,7 92.5,7 Z M92.5,6 C93.8807119,6 95,4.88071187 95,3.5 C95,2.11928813 93.8807119,1 92.5,1 C91.1192881,1 90,2.11928813 90,3.5 C90,4.88071187 91.1192881,6 92.5,6 Z M86,0 L87,0 L87,7 L86,7 L86,0 Z M83,7 C83.5522847,7 84,6.55228475 84,6 C84,5.44771525 83.5522847,5 83,5 C82.4477153,5 82,5.44771525 82,6 C82,6.55228475 82.4477153,7 83,7 Z" id="io" opacity="0.5"></path>
                    <path d="M8.392,11 L5.784,6.808 C7.064,6.6 8.312,5.576 8.312,3.672 C8.312,1.704 6.936,0.328 4.824,0.328 L0.136,0.328 L0.136,11 L2.008,11 L2.008,7.016 L3.864,7.016 L6.232,11 L8.392,11 Z M4.568,5.368 L2.008,5.368 L2.008,1.976 L4.568,1.976 C5.624,1.976 6.392,2.648 6.392,3.672 C6.392,4.696 5.624,5.368 4.568,5.368 L4.568,5.368 Z M19.784,11 L15.592,0.328 L13.256,0.328 L9.064,11 L11.192,11 L11.976,8.952 L16.872,8.952 L17.656,11 L19.784,11 Z M16.344,7.304 L12.504,7.304 L14.424,2.216 L16.344,7.304 Z M22.824,11 L22.824,0.328 L20.952,0.328 L20.952,11 L22.824,11 Z M34.344,11 L34.344,0.328 L32.472,0.328 L32.472,7.736 L27.016,0.328 L25.096,0.328 L25.096,11 L26.968,11 L26.968,3.384 L32.536,11 L34.344,11 Z M40.584,11 C43.912,11 46.168,8.808 46.168,5.672 C46.168,2.536 43.912,0.328 40.584,0.328 L36.616,0.328 L36.616,11 L40.584,11 Z M40.584,9.352 L38.488,9.352 L38.488,1.976 L40.584,1.976 C42.968,1.976 44.248,3.608 44.248,5.672 C44.248,7.688 42.904,9.352 40.584,9.352 L40.584,9.352 Z M56.232,11 L53.624,6.808 C54.904,6.6 56.152,5.576 56.152,3.672 C56.152,1.704 54.776,0.328 52.664,0.328 L47.976,0.328 L47.976,11 L49.848,11 L49.848,7.016 L51.704,7.016 L54.072,11 L56.232,11 Z M52.408,5.368 L49.848,5.368 L49.848,1.976 L52.408,1.976 C53.464,1.976 54.232,2.648 54.232,3.672 C54.232,4.696 53.464,5.368 52.408,5.368 L52.408,5.368 Z M63,11.192 C66.2,11.192 68.456,8.856 68.456,5.672 C68.456,2.488 66.2,0.152 63,0.152 C59.8,0.152 57.544,2.488 57.544,5.672 C57.544,8.856 59.8,11.192 63,11.192 L63,11.192 Z M63,9.528 C60.84,9.528 59.464,7.864 59.464,5.672 C59.464,3.464 60.84,1.816 63,1.816 C65.144,1.816 66.536,3.464 66.536,5.672 C66.536,7.864 65.144,9.528 63,9.528 L63,9.528 Z M72.136,11 L72.136,7.016 L74.952,7.016 C77.176,7.016 78.44,5.48 78.44,3.672 C78.44,1.864 77.192,0.328 74.952,0.328 L70.264,0.328 L70.264,11 L72.136,11 Z M74.696,5.368 L72.136,5.368 L72.136,1.976 L74.696,1.976 C75.752,1.976 76.52,2.648 76.52,3.672 C76.52,4.696 75.752,5.368 74.696,5.368 L74.696,5.368 Z" id="raindrop"></path>
                </g>
            </g>
        </g>
    </g>
</svg>