<?xml version="1.0" encoding="UTF-8" standalone="no"?>
<svg width="60px" height="60px" viewBox="0 0 60 60" version="1.1" xmlns="http://www.w3.org/2000/svg" xmlns:xlink="http://www.w3.org/1999/xlink" xmlns:sketch="http://www.bohemiancoding.com/sketch/ns">
    <!-- Generator: Sketch 3.3.1 (12002) - http://www.bohemiancoding.com/sketch -->
    <title>screenshot</title>
    <desc>Created with Sketch.</desc>
    <defs></defs>
    <g id="Page-3" stroke="none" stroke-width="1" fill="none" fill-rule="evenodd" sketch:type="MSPage">
        <g id="Artboard-2" sketch:type="MSArtboardGroup" transform="translate(-299.000000, -272.000000)" stroke="#3696EA" stroke-width="2">
            <g id="screenshot" sketch:type="MSLayerGroup" transform="translate(301.000000, 276.000000)">
                <path d="M26,51 L1.99700466,51 C0.89408944,51 0,50.1040077 0,49.0007396 L0,1.99926044 C0,0.895099388 0.902557373,0 2.00659927,0 L49.9934007,0 C51.1016149,0 52,0.888164443 52,1.99999465 L52,24.9550781" id="Rectangle-34" sketch:type="MSShapeGroup"></path>
                <path d="M2.5,15 L49.5,15" id="Line" stroke-linecap="square" sketch:type="MSShapeGroup"></path>
                <path d="M8,11 C9.65685425,11 11,9.65685425 11,8 C11,6.34314575 9.65685425,5 8,5 C6.34314575,5 5,6.34314575 5,8 C5,9.65685425 6.34314575,11 8,11 Z M17,11 C18.6568542,11 20,9.65685425 20,8 C20,6.34314575 18.6568542,5 17,5 C15.3431458,5 14,6.34314575 14,8 C14,9.65685425 15.3431458,11 17,11 Z M26,11 C27.6568542,11 29,9.65685425 29,8 C29,6.34314575 27.6568542,5 26,5 C24.3431458,5 23,6.34314575 23,8 C23,9.65685425 24.3431458,11 26,11 Z" id="Oval-8" fill="#D3E8FA" sketch:type="MSShapeGroup"></path>
                <path d="M44,48 C46.7614237,48 49,45.7614237 49,43 C49,40.2385763 46.7614237,38 44,38 C41.2385763,38 39,40.2385763 39,43 C39,45.7614237 41.2385763,48 44,48 Z M32,35.9950893 C32,34.8932319 32.8970262,34 34.0049466,34 L53.9950534,34 C55.1023548,34 56,34.8926228 56,35.9950893 L56,50.0049107 C56,51.1067681 55.1029738,52 53.9950534,52 L34.0049466,52 C32.8976452,52 32,51.1073772 32,50.0049107 L32,35.9950893 Z" id="Rectangle-35" fill="#D3E8FA" sketch:type="MSShapeGroup"></path>
                <path d="M40.5,31 L47.5,31" id="Line" stroke-linecap="square" sketch:type="MSShapeGroup"></path>
            </g>
        </g>
    </g>
</svg>