<svg width="154" height="59" viewBox="0 0 154 59" xmlns="http://www.w3.org/2000/svg"><g fill="none" fill-rule="evenodd"><path d="M121 10h31v7h-25l-6-7z"/><path d="M120 9h30.9977147C152.1035463 9 153 9.88670635 153 10.99810135V17" stroke="#3696EA" stroke-width="2" stroke-linecap="round" stroke-linejoin="round"/><path d="M93 3.9969095C93 2.89404685 93.88967395 2 94.991155 2h18.01769c1.0996845 0 2.5147188.73298928 3.1578532 1.63337746l7.6666036 10.73324504C124.4776514 15.268712 125.8998975 16 126.9912443 16H153v36.9988612C153 54.1040596 152.1052696 55 151.0036926 55H94.99630737C93.89377725 55 93 54.1023238 93 53.0030905V3.9969095z" stroke="#3696EA" stroke-width="2"/><path d="M113.5 34.5l6.5192022 6.5192022L113.5 34.5zm7 6l13-13-13 13z" stroke="#3696EA" stroke-width="2" stroke-linecap="round" stroke-linejoin="round"/><g transform="translate(1 1)"><path d="M0 1.99306965C0 .89232768.89194115 0 1.9999204 0h30.0001592C33.1046051 0 34 .90230818 34 1.99306965V54.0069304c0 1.1007419-.6456614 1.3853883-1.4494104.6289186L18.4494104 41.364151c-.8004872-.7533998-2.0950718-.7564697-2.8988208 0L1.44941044 54.635849C.64892316 55.3892488 0 55.0976918 0 54.0069304V1.99306965z" stroke="#5D57CC" stroke-width="2"/><path fill="#FFF" d="M22 29h23v29H22z"/><path d="M1.5 12h31.0161247" stroke="#5D57CC" stroke-width="2" stroke-linecap="square"/><path d="M1 1h32v10H1z"/><rect stroke="#FF981F" stroke-width="2" x="25" y="32" width="24" height="24" rx="2"/><g stroke="#FF9720" stroke-width="2"><path d="M37 38.99999976L31.5 44.5l5.5-5.50000024L42.5 44.5 37 38.99999976zm0 0l.02268028-.02268028L37 38.99999976l-.02268028-.02268028L37 38.99999976z" stroke-linecap="round" stroke-linejoin="round"/><path d="M37 41.5v13" stroke-linecap="square"/></g></g><path d="M59.5 45s13.8837509 4.703125 27.0200005-17" stroke="#C1C1C1" stroke-width="2" stroke-linecap="square" stroke-dasharray="1,6"/></g></svg>
