<svg xmlns="http://www.w3.org/2000/svg" width="632" height="723" viewBox="0 0 632 723"><g fill-opacity=".01" fill-rule="evenodd" stroke="#000" stroke-opacity=".15" stroke-dasharray="2,4"><path d="M565.375 444.955691C545.541667 330.751068 457.166667 245.014845 351 245.014845c-84.291667 0-157.5 54.288574-193.958333 133.735267C69.25 389.343005 1 473.755117 1 576.042735c0 109.570232 78.4583333 198.616734 175 198.616734h379.166667c80.5 0 145.833333-74.150247 145.833333-165.513945 0-87.391363-59.791667-158.231331-135.625-164.189833z"/><path d="M718.375 200.940846C698.541667 86.7362236 610.166667 1 504 1c-84.291667 0-157.5 54.288574-193.958333 133.735268C222.25 145.32816 154 229.740272 154 332.02789c0 109.570232 78.458333 198.616734 175 198.616734h379.166667c80.5 0 145.833333-74.150247 145.833333-165.513945 0-87.391363-59.791667-158.231331-135.625-164.189833z"/><path d="M974.375 511.917904C954.541667 397.713282 866.166667 311.977058 760 311.977058c-84.291667 0-157.5 54.288574-193.958333 133.735268C478.25 456.305218 410 540.71733 410 643.004948c0 109.570232 78.458333 198.616734 175 198.616734h379.166667C1044.66667 841.621682 1110 767.471435 1110 676.107737c0-87.391363-59.79167-158.231331-135.625-164.189833z"/></g></svg>