<?xml version="1.0" encoding="UTF-8" standalone="no"?>
<svg width="500px" height="250px" viewBox="0 0 500 250" version="1.1" xmlns="http://www.w3.org/2000/svg" xmlns:xlink="http://www.w3.org/1999/xlink" xmlns:sketch="http://www.bohemiancoding.com/sketch/ns">
    <!-- Generator: Sketch 3.3.1 (12002) - http://www.bohemiancoding.com/sketch -->
    <title>bookmarks</title>
    <desc>Created with Sketch.</desc>
    <defs></defs>
    <g id="Page-2" stroke="none" stroke-width="1" fill="none" fill-rule="evenodd" sketch:type="MSPage">
        <g id="bookmarks" sketch:type="MSArtboardGroup">
            <circle id="Oval-1" stroke="#DCDCDC" fill="#FFFFFF" sketch:type="MSShapeGroup" cx="250" cy="151" r="87"></circle>
            <circle id="Oval-4" stroke="#DCDCDC" sketch:type="MSShapeGroup" cx="250" cy="151" r="237"></circle>
            <circle id="Oval-7" stroke="#DCDCDC" sketch:type="MSShapeGroup" cx="250" cy="151" r="157"></circle>
            <path d="M252.645968,135.706433 L280,136 L280,130.998101 C280,129.886706 279.103546,129 277.997715,129 L247,129 L252.269167,135.534166 C251.686895,135.237645 251.160069,134.824097 250.833302,134.366623 L243.166698,123.633377 C242.523564,122.732989 241.10853,122 240.008845,122 L221.991155,122 C220.889674,122 220,122.894047 220,123.99691 L220,173.00309 C220,174.102324 220.893777,175 221.996307,175 L278.003693,175 C279.10527,175 280,174.10406 280,172.998861 L280,136 L253.991244,136 C253.570798,136 253.101239,135.891461 252.645968,135.706433 Z" id="Oval-4" stroke="#848484" stroke-width="2" stroke-linecap="round" stroke-linejoin="round" sketch:type="MSShapeGroup"></path>
            <g id="item" sketch:type="MSLayerGroup" transform="translate(413.000000, 196.000000)">
                <circle id="Oval-1" fill="#1DD3AB" sketch:type="MSShapeGroup" cx="22" cy="22" r="22"></circle>
                <path d="M10.3125,10.3125 L12.4377185,33.7925926 L21.9667342,36.4375 L31.5622815,33.7925926 L33.6875,10.3125 L10.3125,10.3125 L10.3125,10.3125 Z M29.0718346,17.9702351 L17.8831956,17.9702351 L18.1316774,20.9260301 L28.823416,20.9260301 L27.9925924,29.8080324 L22.0328231,31.4246723 L22.0328231,31.4413426 L21.9667342,31.4413426 L15.9568131,29.8080324 L15.5915847,25.2688137 L18.4969058,25.2688137 L18.7125645,27.555 L21.9667342,28.4204839 L25.2368411,27.555 L25.6025122,23.8324363 L15.4424576,23.8324363 L14.662355,15.1131554 L29.3377083,15.1131554 L29.0718346,17.9702351 L29.0718346,17.9702351 Z" id="Shape" fill="#FFFFFF" sketch:type="MSShapeGroup"></path>
            </g>
            <g id="item" sketch:type="MSLayerGroup" transform="translate(260.000000, 192.000000)">
                <path d="M32,64 C49.673112,64 64,49.673112 64,32 C64,14.326888 49.673112,0 32,0 C14.326888,0 0,14.326888 0,32 C0,49.673112 14.326888,64 32,64 Z" id="Oval-6" fill="#FF3B30" sketch:type="MSShapeGroup"></path>
                <path d="M17.4011461,42.3443502 C14.9770774,42.3443502 13,44.2876284 13,46.6721751 C13,49.0567218 14.9770774,51 17.4011461,51 L20.5988539,51 C21.9140401,51 23.0830946,50.4229567 23.8911175,49.523448 C23.8997135,49.514962 23.9169054,49.514962 23.9255014,49.5064761 C23.9770774,49.4555605 24.0114613,49.3791871 24.0544413,49.3282715 C24.1661891,49.1924967 24.269341,49.0567218 24.3553009,48.903975 C25.1719198,47.6989728 25.5587393,46.1121036 25.5587393,44.8986155 L25.5587393,28.1558732 L25.5587393,28.0116123 L25.5587393,27.8758374 C25.6275072,26.6708352 26.52149,25.6949531 27.7163324,25.4234033 C27.8624642,25.3894596 28.1805158,25.3215721 28.1805158,25.3215721 L41.0659026,22.9115677 C41.1260745,22.9030817 41.1776504,22.8945958 41.2378223,22.8861099 C41.3065903,22.8776239 41.3667622,22.8776239 41.4441261,22.8776239 C42.4842407,22.8776239 43.2578797,23.6837874 43.2578797,24.6766414 L43.2578797,35.827155 C43.2578797,37.9910674 43.5071633,38.534167 39.7765043,38.534167 L38.0487106,38.534167 C35.6160458,38.534167 33.6475645,40.4774453 33.6475645,42.861992 C33.6475645,45.2465386 35.6160458,47.1898169 38.0487106,47.1898169 L41.2464183,47.1898169 C42.8108883,47.1898169 44.1776504,46.3921393 44.9598854,45.1871371 C44.9598854,45.1786512 44.9684814,45.1871371 44.9770774,45.1871371 C45.7507163,44.1518535 46,42.5904422 46,40.4944172 L46,14.7990174 C46,13.8061635 45.1489971,13 44.1088825,13 C44.0487106,13 43.9885387,13.0084859 43.9369628,13.0084859 L43.6704871,13.0509156 L24.974212,16.5471192 C23.7879656,16.8610987 22.713467,17.9812416 22.6275072,19.2117017 L22.6275072,19.2286735 L22.6275072,19.2456454 L22.6275072,40.4689594 C22.6275072,41.6485038 22.7994269,42.3528361 18.5272206,42.3528361 L17.4011461,42.3528361 L17.4011461,42.3443502 Z" id="Shape" fill="#FFFFFF" sketch:type="MSShapeGroup"></path>
            </g>
            <g id="item" sketch:type="MSLayerGroup" transform="translate(175.000000, 192.000000)">
                <ellipse id="Oval-5" fill="#8F9BAC" sketch:type="MSShapeGroup" cx="32" cy="32" rx="32" ry="32"></ellipse>
                <path d="M40,34 L24,34 L24,34 L24,36 L40,36 L40,34 L40,34 Z M46,34 L51,34 L51,36 L46,36 L46,34 L46,34 Z M18,34 L13,34 L13,36 L18,36 L18,34 L18,34 Z M39,21 L39,16.999615 C39,15.8874333 38.1019465,15 36.9941413,15 L27.0058587,15 C25.8970601,15 25,15.8952581 25,16.999615 L25,21 L15.0028592,21 C13.9018508,21 13,21.8987122 13,23.0073299 L13,45.9926701 C13,47.1016617 13.8967106,48 15.0028592,48 L48.9971408,48 C50.0981492,48 51,47.1012878 51,45.9926701 L51,23.0073299 C51,21.8983383 50.1032894,21 48.9971408,21 L39,21 L39,21 Z M37,21 L37,17 L27,17 L27,21 L37,21 Z M20,31 L22,31 L22,40 L20,40 L20,31 Z M42,31 L44,31 L44,40 L42,40 L42,31 Z" id="Rectangle-176" fill="#FFFFFF" sketch:type="MSShapeGroup"></path>
            </g>
            <g id="item" sketch:type="MSLayerGroup" transform="translate(300.000000, 118.000000)">
                <ellipse id="Oval-4" fill="#2196F3" sketch:type="MSShapeGroup" cx="32" cy="32" rx="32" ry="32"></ellipse>
                <path d="M12,34.1732174 L12,28.5945557 C12,28.0834182 12.4084444,27.6654639 12.9088889,27.6654639 L22.5004444,27.6654639 L18.3244444,35.1032227 L12.9088889,35.1032227 C12.4084444,35.1032227 12,34.686182 12,34.1732174 L12,34.1732174 Z M18.8324444,45.5959303 L15.7715556,47.7272686 C15.3595556,48.0154972 15.0684444,47.8327849 15.1253333,47.3248449 L15.5337778,43.6783652 C15.5906667,43.1704252 15.9915556,42.9630468 16.4248889,43.21656 L18.7937778,44.607457 C19.2266667,44.8627974 19.2444444,45.3099856 18.8324444,45.5959303 L18.8324444,45.5959303 Z M19.5675556,43.5404175 L17.1986667,42.1495205 C16.7653333,41.8946369 16.6128889,41.3245747 16.8648889,40.8819543 L27.8342222,21.3381388 C28.0831111,20.894148 28.644,20.7383858 29.0768889,20.9960101 L31.4457778,22.3837096 C31.8791111,22.6413339 32.0284444,23.2118529 31.7795556,23.6544733 L20.8102222,43.1987456 C20.5617778,43.6422796 20.0004444,43.7943875 19.5675556,43.5404175 L19.5675556,43.5404175 Z M27.916,35.1032227 L32.092,27.6654639 L34.4964444,27.6654639 L37.8875556,35.1032227 L27.916,35.1032227 L27.916,35.1032227 Z M41.5168889,37.3231765 C40.5684444,36.8362484 35.8453333,25.6853199 34.6355556,22.7760842 C33.424,19.8668484 29.7662222,12.1230466 30.9497778,11.5200962 C31.7915556,11.0879817 34.8133333,17.186003 37.0786667,20.8470996 C39.3404444,24.5081963 44.0706667,33.9480245 44.6528889,35.0232861 C45.232,36.1008316 44.0955556,36.9997758 43.4635556,37.2683628 C42.8311111,37.5374066 42.4648889,37.8055368 41.5168889,37.3231765 L41.5168889,37.3231765 Z M44.6204444,42.4477982 L43.1933333,40.1410561 C42.8982222,39.6614365 43.0515556,39.068992 43.5302222,38.8159356 L44.8906667,38.1006171 C45.3702222,37.8498446 45.9706667,38.0531119 46.2257778,38.554657 L47.3515556,40.7704998 C47.6075556,41.2715882 47.4333333,41.9147353 46.9715556,42.1979392 L45.9991111,42.7931244 C45.5368889,43.0795258 44.916,42.9233069 44.6204444,42.4477982 L44.6204444,42.4477982 Z M49.8728889,48.4983143 C49.5746667,47.5212606 47.2982222,47.4563977 46.2791111,45.9846506 C45.2564444,44.517928 46.1017778,43.7624129 46.4564444,43.4134325 C50.5902222,41.0308648 49.8728889,48.4983143 49.8728889,48.4983143 L49.8728889,48.4983143 Z M52,34.1732174 C52,34.686182 51.5915556,35.1032227 51.0911111,35.1032227 L46.2897778,35.1032227 C46.2368889,34.8163645 46.1511111,34.5295062 46.0057778,34.2604625 C45.8808889,34.0316154 45.5648889,33.4145048 45.1248889,32.5539301 C44.4893333,31.3119436 43.5768889,29.5359805 42.5995556,27.6654639 L51.0902222,27.6654639 C51.5906667,27.6654639 51.9991111,28.0834182 51.9991111,28.5945557 L52,34.1732174 L52,34.1732174 Z" id="Shape" fill="#FFFFFF" sketch:type="MSShapeGroup"></path>
            </g>
            <g id="item" sketch:type="MSLayerGroup" transform="translate(51.000000, 40.000000)">
                <circle id="Oval-1" fill="#795548" sketch:type="MSShapeGroup" cx="22" cy="22" r="22"></circle>
                <path d="M21.4495678,35.75 L21.4495678,22.5504324 L17.0353019,22.5504324 C16.8871731,26.3159998 15.2259067,29.6927963 12.6426509,32.0896735 C14.9727592,34.2516675 18.053009,35.6163873 21.4495678,35.75 L21.4495678,35.75 L21.4495678,35.75 Z M11.1128701,30.4171444 C9.4161037,28.225673 8.36634248,25.5079644 8.25,22.5504324 L15.9334939,22.5504324 C15.7854601,26.0108595 14.2483299,29.1114895 11.8655575,31.3088677 C11.8804422,31.3250641 11.3647441,30.7424542 11.1128701,30.4171444 L11.1128701,30.4171444 L11.1128701,30.4171444 Z M32.1344425,31.3088677 C34.2704964,28.9845945 35.6173119,25.9234864 35.75,22.5504324 L35.75,22.5504324 L28.0665061,22.5504324 C28.2145399,26.0108595 29.7516702,29.1114895 32.1344425,31.3088677 L32.1344425,31.3088677 L32.1344425,31.3088677 Z M31.3573491,32.0896735 C29.0272408,34.2516675 25.946991,35.6163873 22.5504324,35.75 L22.5504324,35.75 L22.5504324,22.5504324 L26.9646981,22.5504324 C27.1128269,26.3159998 28.7740933,29.6927963 31.3573491,32.0896735 L31.3573491,32.0896735 L31.3573491,32.0896735 Z M32.1344425,12.6911323 C34.2704965,15.0154055 35.6173119,18.0765136 35.75,21.4495678 L35.75,21.4495678 L28.0665061,21.4495678 C28.2145399,17.9891405 29.7516702,14.8885105 32.1344425,12.6911323 L32.1344425,12.6911323 L32.1344425,12.6911323 Z M31.3573494,11.9103267 C29.0272411,9.74833265 25.9469911,8.38361276 22.5504324,8.25 L22.5504324,21.4495678 L26.9646981,21.4495678 C27.1128269,17.6840002 28.7740933,14.3072037 31.3573491,11.9103265 L31.3573494,11.9103267 L31.3573494,11.9103267 Z M11.8655578,12.691132 C9.72950364,15.0154053 8.38268816,18.0765135 8.25,21.4495678 L8.25,21.4495678 L15.9334939,21.4495678 C15.7854601,17.9891405 14.2483299,14.8885105 11.8655575,12.6911323 L11.8655578,12.691132 L11.8655578,12.691132 Z M12.6426509,11.9103265 C14.9727592,9.74833255 18.053009,8.38361276 21.4495678,8.25 L21.4495678,8.25 L21.4495678,21.4495678 L17.0353019,21.4495678 C16.8871731,17.6840002 15.2259067,14.3072037 12.6426509,11.9103265 L12.6426509,11.9103265 L12.6426509,11.9103265 Z" id="basketball" fill="#FFFFFF" sketch:type="MSShapeGroup"></path>
            </g>
            <g id="item" sketch:type="MSLayerGroup" transform="translate(135.000000, 118.000000)">
                <ellipse id="Oval-7" fill="#5AC8FA" sketch:type="MSShapeGroup" cx="32" cy="32" rx="32" ry="32"></ellipse>
                <path d="M50.3112727,15.6677619 C48.7270902,14.1258358 44.7614971,15.4917703 42.8629437,17.3396817 L35.640633,24.3773445 C34.9358669,23.741375 17.3886312,17.6516668 16.7598895,18.2616376 L14.470941,20.4875309 C13.8380899,21.1015015 13.8380899,22.0974537 14.470941,22.7114243 L27.2964498,32.5029551 L22.2418597,37.4247192 C21.8576286,37.8007012 21.3747714,38.3786735 20.865203,39.0606408 L20.6617866,38.8646502 C20.3412516,38.5526652 15.7345885,37.9866923 15.4119988,38.2986774 L14.2449227,39.4306231 C13.9243877,39.7446081 13.9243877,40.2505838 14.2449227,40.5625689 L14.8202419,41.1205421 L17.9043638,44.1183985 C17.2920598,45.6023273 17.0680962,46.8902656 17.6577984,47.466238 C18.2495553,48.0422104 19.5748442,47.822221 21.1014948,47.2222497 L24.140413,50.1781081 L24.7465529,50.76408 C25.0670879,51.0780649 25.5910393,51.0780649 25.9115743,50.76408 L27.0786504,49.6321342 C27.3991854,49.3201492 26.817702,44.8443637 26.4951123,44.5323786 L26.2958053,44.3383879 C26.9964619,43.8444116 27.5841094,43.376434 27.9662857,43.0044518 L33.0208759,38.0806878 L43.0848525,50.5240915 C43.7177037,51.1380621 44.7430047,51.1380621 45.3738011,50.5240915 L47.6627496,48.3001981 C48.2956007,47.6842276 42.0184573,30.6090459 41.3712232,29.9470776 L48.5873698,22.9174145 C50.4900326,21.0715029 51.8934005,17.2076881 50.3112727,15.6677619 L50.3112727,15.6677619 Z" id="Shape" fill="#FFFFFF" sketch:type="MSShapeGroup"></path>
            </g>
            <g id="item" sketch:type="MSLayerGroup" transform="translate(260.000000, 44.000000)">
                <ellipse id="Oval-3" fill="#FF9500" sketch:type="MSShapeGroup" cx="32" cy="32" rx="32" ry="32"></ellipse>
                <path d="M22,31 L22,21 C22,15.4771525 26.4759382,11 32,11 L32,11 C37.5228475,11 42,15.4759382 42,21 L42,31" id="Rectangle-154" stroke="#FFFFFF" stroke-width="2" sketch:type="MSShapeGroup"></path>
                <path d="M15.7794028,23.9853745 C15.9012353,22.8888824 16.8892617,22 18.0017433,22 L45.9982567,22 C47.103789,22 48.0998154,22.8983383 48.2205972,23.9853745 L50.7794028,47.0146255 C50.9012353,48.1111176 50.0981492,49 48.9971408,49 L15.0028592,49 C13.8967106,49 13.0998154,48.1016617 13.2205972,47.0146255 L15.7794028,23.9853745 Z" id="Rectangle-153" fill="#FFFFFF" sketch:type="MSShapeGroup"></path>
                <path d="M23,23 L23,28.5990195" id="Line" stroke="#FF9500" stroke-width="2" stroke-linecap="square" sketch:type="MSShapeGroup"></path>
                <path d="M41,23 L41,28.5990195" id="Line-Copy" stroke="#FF9500" stroke-width="2" stroke-linecap="square" sketch:type="MSShapeGroup"></path>
                <path d="M23,34 C24.6568542,34 26,32.6568542 26,31 C26,29.3431458 24.6568542,28 23,28 C21.3431458,28 20,29.3431458 20,31 C20,32.6568542 21.3431458,34 23,34 Z M41,34 C42.6568542,34 44,32.6568542 44,31 C44,29.3431458 42.6568542,28 41,28 C39.3431458,28 38,29.3431458 38,31 C38,32.6568542 39.3431458,34 41,34 Z" id="Oval-14" fill="#FF9500" sketch:type="MSShapeGroup"></path>
            </g>
            <g id="item" sketch:type="MSLayerGroup" transform="translate(175.000000, 44.000000)">
                <ellipse id="Oval-2" fill="#FF3B30" sketch:type="MSShapeGroup" cx="32" cy="32" rx="32" ry="32"></ellipse>
                <path d="M14,16.0023996 C14,14.8965048 14.8898926,14 15.9997073,14 L48.0002927,14 C49.1047006,14 50,14.8962786 50,16.0023996 L50,48.9976004 C50,50.1034952 49.1101074,51 48.0002927,51 L15.9997073,51 C14.8952994,51 14,50.1037214 14,48.9976004 L14,16.0023996 Z M16,16 L19,16 L19,19 L16,19 L16,16 Z M16,21 L19,21 L19,24 L16,24 L16,21 Z M16,26 L19,26 L19,29 L16,29 L16,26 Z M16,31 L19,31 L19,34 L16,34 L16,31 Z M16,36 L19,36 L19,39 L16,39 L16,36 Z M16,41 L19,41 L19,44 L16,44 L16,41 Z M16,46 L19,46 L19,49 L16,49 L16,46 Z M45,16 L48,16 L48,19 L45,19 L45,16 Z M45,21 L48,21 L48,24 L45,24 L45,21 Z M45,26 L48,26 L48,29 L45,29 L45,26 Z M45,31 L48,31 L48,34 L45,34 L45,31 Z M45,36 L48,36 L48,39 L45,39 L45,36 Z M45,41 L48,41 L48,44 L45,44 L45,41 Z M45,46 L48,46 L48,49 L45,49 L45,46 Z M21,16 L43,16 L43,31 L21,31 L21,16 Z M21,33 L43,33 L43,49 L21,49 L21,33 Z" id="Rectangle-154" fill="#FFFFFF" sketch:type="MSShapeGroup"></path>
            </g>
        </g>
    </g>
</svg>