<?xml version="1.0" encoding="UTF-8" standalone="no"?>
<svg width="500px" height="250px" viewBox="0 0 500 250" version="1.1" xmlns="http://www.w3.org/2000/svg" xmlns:xlink="http://www.w3.org/1999/xlink" xmlns:sketch="http://www.bohemiancoding.com/sketch/ns">
    <!-- Generator: Sketch 3.3.1 (12002) - http://www.bohemiancoding.com/sketch -->
    <title>start</title>
    <desc>Created with Sketch.</desc>
    <defs></defs>
    <g id="Page-2" stroke="none" stroke-width="1" fill="none" fill-rule="evenodd" sketch:type="MSPage">
        <g id="start" sketch:type="MSArtboardGroup">
            <g id="start-footer" sketch:type="MSLayerGroup" transform="translate(0.000000, 220.000000)">
                <rect id="Rectangle-231" stroke="#DCDCDC" fill="#FFFFFF" sketch:type="MSShapeGroup" x="0" y="0.5" width="500" height="30"></rect>
                <rect id="Rectangle-232" fill="#5D57CC" sketch:type="MSShapeGroup" x="145" y="14" width="58" height="3"></rect>
                <rect id="Rectangle-232-Copy" fill="#B0B0B0" sketch:type="MSShapeGroup" x="245" y="14" width="38" height="3"></rect>
                <rect id="Rectangle-232-Copy-3" fill="#B0B0B0" sketch:type="MSShapeGroup" x="105" y="14" width="8" height="3"></rect>
                <rect id="Rectangle-232-Copy-2" fill="#B0B0B0" sketch:type="MSShapeGroup" x="325" y="14" width="58" height="3"></rect>
            </g>
            <circle id="Oval-2" fill="#5856D6" sketch:type="MSShapeGroup" cx="464.5" cy="219.5" r="17.5"></circle>
            <rect id="Rectangle-236" stroke="#C2C2C2" fill="#FFFFFF" sketch:type="MSShapeGroup" x="105.5" y="26.5" width="277" height="18" rx="3"></rect>
            <rect id="Oval-6" fill="#2196F3" sketch:type="MSShapeGroup" x="105" y="63" width="59" height="59" rx="3"></rect>
            <rect id="Oval-7" fill="#1DD3AA" sketch:type="MSShapeGroup" x="178" y="63" width="59" height="59" rx="3"></rect>
            <rect id="Oval-3" fill="#FF9500" sketch:type="MSShapeGroup" x="251" y="63" width="59" height="59" rx="3"></rect>
            <rect id="Oval-5" fill="#8F9BAC" sketch:type="MSShapeGroup" x="324" y="63" width="59" height="59" rx="3"></rect>
            <rect id="Oval-2" fill="#FF3B30" sketch:type="MSShapeGroup" x="105" y="136" width="59" height="59" rx="3"></rect>
            <rect id="Oval-4" fill="#5AC8FA" sketch:type="MSShapeGroup" x="178" y="136" width="59" height="59" rx="3"></rect>
            <rect id="Oval-5" fill="#5856D6" sketch:type="MSShapeGroup" x="251" y="136" width="59" height="59" rx="3"></rect>
            <rect id="Oval-1" fill="#34AADC" sketch:type="MSShapeGroup" x="324" y="136" width="59" height="59" rx="3"></rect>
            <g id="ic_language_24px" sketch:type="MSLayerGroup" transform="translate(122.000000, 81.000000)">
                <path d="M0,0 L24,0 L24,24 L0,24 L0,0 Z" id="ffg" sketch:type="MSShapeGroup"></path>
                <path d="M11.99,2 C6.47,2 2,6.48 2,12 C2,17.52 6.47,22 11.99,22 C17.52,22 22,17.52 22,12 C22,6.48 17.52,2 11.99,2 L11.99,2 Z M18.92,8 L15.97,8 C15.65,6.75 15.19,5.55 14.59,4.44 C16.43,5.07 17.96,6.35 18.92,8 L18.92,8 Z M12,4.04 C12.83,5.24 13.48,6.57 13.91,8 L10.09,8 C10.52,6.57 11.17,5.24 12,4.04 L12,4.04 Z M4.26,14 C4.1,13.36 4,12.69 4,12 C4,11.31 4.1,10.64 4.26,10 L7.64,10 C7.56,10.66 7.5,11.32 7.5,12 C7.5,12.68 7.56,13.34 7.64,14 L4.26,14 L4.26,14 Z M5.08,16 L8.03,16 C8.35,17.25 8.81,18.45 9.41,19.56 C7.57,18.93 6.04,17.66 5.08,16 L5.08,16 Z M8.03,8 L5.08,8 C6.04,6.34 7.57,5.07 9.41,4.44 C8.81,5.55 8.35,6.75 8.03,8 L8.03,8 Z M12,19.96 C11.17,18.76 10.52,17.43 10.09,16 L13.91,16 C13.48,17.43 12.83,18.76 12,19.96 L12,19.96 Z M14.34,14 L9.66,14 C9.57,13.34 9.5,12.68 9.5,12 C9.5,11.32 9.57,10.65 9.66,10 L14.34,10 C14.43,10.65 14.5,11.32 14.5,12 C14.5,12.68 14.43,13.34 14.34,14 L14.34,14 Z M14.59,19.56 C15.19,18.45 15.65,17.25 15.97,16 L18.92,16 C17.96,17.65 16.43,18.93 14.59,19.56 L14.59,19.56 Z M16.36,14 C16.44,13.34 16.5,12.68 16.5,12 C16.5,11.32 16.44,10.66 16.36,10 L19.74,10 C19.9,10.64 20,11.31 20,12 C20,12.69 19.9,13.36 19.74,14 L16.36,14 L16.36,14 Z" id="Shape" fill="#FFFFFF" sketch:type="MSShapeGroup"></path>
            </g>
            <g id="ic_grade_24px" sketch:type="MSLayerGroup" transform="translate(195.000000, 80.000000)">
                <path d="M12,17.27 L18.18,21 L16.54,13.97 L22,9.24 L14.81,8.63 L12,2 L9.19,8.63 L2,9.24 L7.46,13.97 L5.82,21 L12,17.27 Z" id="Shape" fill="#FFFFFF" sketch:type="MSShapeGroup"></path>
                <path d="M0,0 L24,0 L24,24 L0,24 L0,0 Z" id="Shape" sketch:type="MSShapeGroup"></path>
            </g>
            <g id="ic_redeem_24px" sketch:type="MSLayerGroup" transform="translate(269.000000, 80.000000)">
                <path d="M20,6 L17.82,6 C17.93,5.69 18,5.35 18,5 C18,3.34 16.66,2 15,2 C13.95,2 13.04,2.54 12.5,3.35 L12,4.02 L11.5,3.34 C10.96,2.54 10.05,2 9,2 C7.34,2 6,3.34 6,5 C6,5.35 6.07,5.69 6.18,6 L4,6 C2.89,6 2.01,6.89 2.01,8 L2,19 C2,20.11 2.89,21 4,21 L20,21 C21.11,21 22,20.11 22,19 L22,8 C22,6.89 21.11,6 20,6 L20,6 Z M15,4 C15.55,4 16,4.45 16,5 C16,5.55 15.55,6 15,6 C14.45,6 14,5.55 14,5 C14,4.45 14.45,4 15,4 L15,4 Z M9,4 C9.55,4 10,4.45 10,5 C10,5.55 9.55,6 9,6 C8.45,6 8,5.55 8,5 C8,4.45 8.45,4 9,4 L9,4 Z M20,19 L4,19 L4,17 L20,17 L20,19 L20,19 Z M20,14 L4,14 L4,8 L9.08,8 L7,10.83 L8.62,12 L11,8.76 L12,7.4 L13,8.76 L15.38,12 L17,10.83 L14.92,8 L20,8 L20,14 L20,14 Z" id="Shape" fill="#FFFFFF" sketch:type="MSShapeGroup"></path>
                <path d="M0,0 L24,0 L24,24 L0,24 L0,0 Z" id="Shape" sketch:type="MSShapeGroup"></path>
            </g>
            <g id="ic_theaters_24px" sketch:type="MSLayerGroup" transform="translate(342.000000, 80.000000)">
                <path d="M18,3 L18,5 L16,5 L16,3 L8,3 L8,5 L6,5 L6,3 L4,3 L4,21 L6,21 L6,19 L8,19 L8,21 L16,21 L16,19 L18,19 L18,21 L20,21 L20,3 L18,3 L18,3 Z M8,17 L6,17 L6,15 L8,15 L8,17 L8,17 Z M8,13 L6,13 L6,11 L8,11 L8,13 L8,13 Z M8,9 L6,9 L6,7 L8,7 L8,9 L8,9 Z M18,17 L16,17 L16,15 L18,15 L18,17 L18,17 Z M18,13 L16,13 L16,11 L18,11 L18,13 L18,13 Z M18,9 L16,9 L16,7 L18,7 L18,9 L18,9 Z" id="Shape" fill="#FFFFFF" sketch:type="MSShapeGroup"></path>
                <path d="M0,0 L24,0 L24,24 L0,24 L0,0 Z" id="Shape" sketch:type="MSShapeGroup"></path>
            </g>
            <g id="ic_supervisor_account_24px" sketch:type="MSLayerGroup" transform="translate(122.000000, 153.000000)">
                <path d="M0,0 L24,0 L24,24 L0,24 L0,0 Z" id="Shape" sketch:type="MSShapeGroup"></path>
                <path d="M16.5,12 C17.88,12 18.99,10.88 18.99,9.5 C18.99,8.12 17.88,7 16.5,7 C15.12,7 14,8.12 14,9.5 C14,10.88 15.12,12 16.5,12 L16.5,12 Z M9,11 C10.66,11 11.99,9.66 11.99,8 C11.99,6.34 10.66,5 9,5 C7.34,5 6,6.34 6,8 C6,9.66 7.34,11 9,11 L9,11 Z M16.5,14 C14.67,14 11,14.92 11,16.75 L11,19 L22,19 L22,16.75 C22,14.92 18.33,14 16.5,14 L16.5,14 Z M9,13 C6.67,13 2,14.17 2,16.5 L2,19 L9,19 L9,16.75 C9,15.9 9.33,14.41 11.37,13.28 C10.5,13.1 9.66,13 9,13 L9,13 Z" id="Shape" fill="#FFFFFF" sketch:type="MSShapeGroup"></path>
            </g>
            <g id="ic_spellcheck_24px" sketch:type="MSLayerGroup" transform="translate(196.000000, 153.000000)">
                <path d="M0,0 L24,0 L24,24 L0,24 L0,0 Z" id="Shape" sketch:type="MSShapeGroup"></path>
                <path d="M12.45,16 L14.54,16 L9.43,3 L7.57,3 L2.46,16 L4.55,16 L5.67,13 L11.31,13 L12.45,16 L12.45,16 Z M6.43,11 L8.5,5.48 L10.57,11 L6.43,11 L6.43,11 Z M21.59,11.59 L13.5,19.68 L9.83,16 L8.42,17.41 L13.51,22.5 L23,13 L21.59,11.59 L21.59,11.59 Z" id="Shape" fill="#FFFFFF" sketch:type="MSShapeGroup"></path>
            </g>
            <g id="ic_today_24px" sketch:type="MSLayerGroup" transform="translate(268.000000, 154.000000)">
                <path d="M0,0 L24,0 L24,24 L0,24 L0,0 Z" id="Shape" sketch:type="MSShapeGroup"></path>
                <path d="M19,3 L18,3 L18,1 L16,1 L16,3 L8,3 L8,1 L6,1 L6,3 L5,3 C3.89,3 3.01,3.9 3.01,5 L3,19 C3,20.1 3.89,21 5,21 L19,21 C20.1,21 21,20.1 21,19 L21,5 C21,3.9 20.1,3 19,3 L19,3 Z M19,19 L5,19 L5,8 L19,8 L19,19 L19,19 Z M7,10 L12,10 L12,15 L7,15 L7,10 Z" id="Shape" fill="#FFFFFF" sketch:type="MSShapeGroup"></path>
            </g>
            <g id="ic_work_24px" sketch:type="MSLayerGroup" transform="translate(341.000000, 153.000000)">
                <path d="M0,0 L24,0 L24,24 L0,24 L0,0 Z" id="Shape" sketch:type="MSShapeGroup"></path>
                <path d="M20,6 L16,6 L16,4 C16,2.89 15.11,2 14,2 L10,2 C8.89,2 8,2.89 8,4 L8,6 L4,6 C2.89,6 2.01,6.89 2.01,8 L2,19 C2,20.11 2.89,21 4,21 L20,21 C21.11,21 22,20.11 22,19 L22,8 C22,6.89 21.11,6 20,6 L20,6 Z M14,6 L10,6 L10,4 L14,4 L14,6 L14,6 Z" id="Shape" fill="#FFFFFF" sketch:type="MSShapeGroup"></path>
            </g>
        </g>
    </g>
</svg>