<?xml version="1.0" encoding="UTF-8" standalone="no"?>
<svg width="60px" height="60px" viewBox="0 0 60 60" version="1.1" xmlns="http://www.w3.org/2000/svg" xmlns:xlink="http://www.w3.org/1999/xlink" xmlns:sketch="http://www.bohemiancoding.com/sketch/ns">
    <!-- Generator: Sketch 3.3.1 (12002) - http://www.bohemiancoding.com/sketch -->
    <title>batch_edit</title>
    <desc>Created with Sketch.</desc>
    <defs></defs>
    <g id="Page-3" stroke="none" stroke-width="1" fill="none" fill-rule="evenodd" sketch:type="MSPage">
        <g id="Artboard-2" sketch:type="MSArtboardGroup" transform="translate(-246.000000, -328.000000)">
            <g id="batch_edit" sketch:type="MSLayerGroup" transform="translate(247.000000, 329.000000)">
                <g id="Rectangle-16-+-Path" sketch:type="MSShapeGroup">
                    <rect id="Rectangle-16" stroke="#4990E2" stroke-width="2" x="0" y="0" width="16" height="16" rx="2"></rect>
                    <path d="M6.28571429,13 L2,8.68138196 L3.20857143,7.46353167 L6.28571429,10.5556622 L12.7914286,4 L14,5.22648752 L6.28571429,13 L6.28571429,13 Z" id="Path" fill="#4990E2"></path>
                </g>
                <g id="Rectangle-16-+-Path-Copy" transform="translate(0.000000, 42.000000)" sketch:type="MSShapeGroup">
                    <rect id="Rectangle-16" stroke="#4990E2" stroke-width="2" x="0" y="0" width="16" height="16" rx="2"></rect>
                    <path d="M6.28571429,13 L2,8.68138196 L3.20857143,7.46353167 L6.28571429,10.5556622 L12.7914286,4 L14,5.22648752 L6.28571429,13 L6.28571429,13 Z" id="Path" fill="#4990E2"></path>
                </g>
                <g id="Rectangle-16-+-Path-Copy-2" transform="translate(0.000000, 21.000000)" sketch:type="MSShapeGroup">
                    <rect id="Rectangle-16" stroke="#4990E2" stroke-width="2" x="0" y="0" width="16" height="16" rx="2"></rect>
                    <path d="M6.28571429,13 L2,8.68138196 L3.20857143,7.46353167 L6.28571429,10.5556622 L12.7914286,4 L14,5.22648752 L6.28571429,13 L6.28571429,13 Z" id="Path" fill="#4990E2"></path>
                </g>
                <path d="M21.5,5 L57.5099983,5" id="Line-Copy-4" stroke="#7E868D" stroke-width="2" stroke-linecap="square" sketch:type="MSShapeGroup"></path>
                <path d="M21.5,10 L40.5100002,10" id="Line-Copy-3" stroke="#7E868D" stroke-width="2" stroke-linecap="square" sketch:type="MSShapeGroup"></path>
                <path d="M21.5,26 L57.5099983,26" id="Line-Copy-6" stroke="#7E868D" stroke-width="2" stroke-linecap="square" sketch:type="MSShapeGroup"></path>
                <path d="M21.5,31 L40.5100002,31" id="Line-Copy-5" stroke="#7E868D" stroke-width="2" stroke-linecap="square" sketch:type="MSShapeGroup"></path>
                <path d="M21.5,47 L57.5099983,47" id="Line-Copy-8" stroke="#7E868D" stroke-width="2" stroke-linecap="square" sketch:type="MSShapeGroup"></path>
                <path d="M21.5,52 L40.5100002,52" id="Line-Copy-7" stroke="#7E868D" stroke-width="2" stroke-linecap="square" sketch:type="MSShapeGroup"></path>
            </g>
        </g>
    </g>
</svg>