<?xml version="1.0" encoding="UTF-8" standalone="no"?>
<svg width="60px" height="60px" viewBox="0 0 60 60" version="1.1" xmlns="http://www.w3.org/2000/svg" xmlns:xlink="http://www.w3.org/1999/xlink" xmlns:sketch="http://www.bohemiancoding.com/sketch/ns">
    <!-- Generator: Sketch 3.3.1 (12002) - http://www.bohemiancoding.com/sketch -->
    <title>change-view</title>
    <desc>Created with Sketch.</desc>
    <defs></defs>
    <g id="Page-3" stroke="none" stroke-width="1" fill="none" fill-rule="evenodd" sketch:type="MSPage">
        <g id="Artboard-2" sketch:type="MSArtboardGroup" transform="translate(-96.000000, -233.000000)">
            <g id="change-view" sketch:type="MSLayerGroup" transform="translate(96.000000, 233.000000)">
                <path d="M0,9 C0,4.02943725 4.02834436,0 9,0 C13.9705627,0 18,4.02834436 18,9 C18,13.9705627 13.9716556,18 9,18 C4.02943725,18 0,13.9716556 0,9 Z M9,12 C10.6568542,12 12,10.6568542 12,9 C12,7.34314575 10.6568542,6 9,6 C7.34314575,6 6,7.34314575 6,9 C6,10.6568542 7.34314575,12 9,12 Z" id="Rectangle-41" fill="#FF6B38" sketch:type="MSShapeGroup"></path>
                <path d="M22.5,6 L58.5099983,6" id="Line" stroke="#7E868D" stroke-width="2" stroke-linecap="square" sketch:type="MSShapeGroup"></path>
                <path d="M22.5,11 L41.5100002,11" id="Line-Copy" stroke="#7E868D" stroke-width="2" stroke-linecap="square" sketch:type="MSShapeGroup"></path>
                <rect id="Rectangle-41-Copy" stroke="#7E868D" stroke-width="2" fill="#ECEFF1" sketch:type="MSShapeGroup" x="22" y="22" width="16" height="16" rx="2"></rect>
                <rect id="Rectangle-41-Copy-5" stroke="#7E868D" stroke-width="2" sketch:type="MSShapeGroup" x="1" y="22" width="16" height="16" rx="2"></rect>
                <rect id="Rectangle-41-Copy-3" stroke="#7E868D" stroke-width="2" fill="#ECEEF1" sketch:type="MSShapeGroup" x="43" y="22" width="16" height="37" rx="2"></rect>
                <rect id="Rectangle-41-Copy-8" stroke="#7E868D" stroke-width="2" fill="#ECEEF1" sketch:type="MSShapeGroup" x="1" y="43" width="16" height="16" rx="2"></rect>
                <rect id="Rectangle-41-Copy-7" stroke="#7E868D" stroke-width="2" sketch:type="MSShapeGroup" x="22" y="43" width="16" height="16" rx="2"></rect>
            </g>
        </g>
    </g>
</svg>