<?xml version="1.0" encoding="UTF-8" standalone="no"?>
<svg width="60px" height="60px" viewBox="0 0 60 60" version="1.1" xmlns="http://www.w3.org/2000/svg" xmlns:xlink="http://www.w3.org/1999/xlink" xmlns:sketch="http://www.bohemiancoding.com/sketch/ns">
    <!-- Generator: Sketch 3.3.1 (12002) - http://www.bohemiancoding.com/sketch -->
    <title>collaborate</title>
    <desc>Created with Sketch.</desc>
    <defs></defs>
    <g id="Page-3" stroke="none" stroke-width="1" fill="none" fill-rule="evenodd" sketch:type="MSPage">
        <g id="Artboard-2" sketch:type="MSArtboardGroup" transform="translate(-246.000000, -245.000000)" stroke-width="2">
            <g id="collaborate" sketch:type="MSLayerGroup" transform="translate(247.000000, 248.000000)">
                <path d="M36,52 C33.2385763,52 31,49.7614237 31,47 C31,44.9493815 32.2344557,43.1870857 34.0007737,42.4157057 C34.0457156,39.9693221 36.0428779,38 38.5,38 C39.0516837,38 39.5801802,38.0992758 40.0685994,38.2809373 C41.306988,36.3100312 43.5005069,35 46,35 C49.8659932,35 53,38.1340068 53,42 C53,42.0333471 52.9997668,42.0666398 52.999302,42.0998765 L52.999302,42.0998765 C55.2818901,42.5628771 57,44.5807955 57,47 C57,49.7614237 54.7614237,52 52,52 L36,52 Z" id="Oval-13" stroke="#4A90E2" fill="#EDF6FD" sketch:type="MSShapeGroup"></path>
                <path d="M13.2830189,53 L0,53 L0,46.9245283 C0,46.9245283 8.56306339,42.3101436 12.1509434,35.6618767 L12.1509434,32.1215773 C10.2220868,30.3952039 8.94045442,27.9605338 8.71489422,25.2264151 L8.67924528,20.8787884 C8.67924528,20.4040662 9.06728974,20.0191902 9.54716981,20.0188681 L9.54716981,14.9559748 C9.54716981,10.5620113 13.1162698,7 17.5066234,7 L20.6820558,7 C25.0779407,7 25.0742188,9.26708984 25.0742188,10.9111328 L24.3398438,17.6923828 C24.3398438,17.6923828 23.2338867,25.1870155 28.0185547,28.6542969 C32.8032227,32.1215782 14.7263794,45.8242188 14.7263794,45.8242188" id="Rectangle-47-Copy" stroke="#7E868D" fill="#ECEEF1" sketch:type="MSShapeGroup"></path>
                <path d="M27,53 L14,53 L14,46 C14,46 23.8661382,40.6834264 28,33.0234666 L28,28.944426 C25.7776217,26.9553436 24.3009583,24.1501803 24.0410738,21 L24,15.990778 C24,15.4438154 24.4470947,15.0003714 25,15.0000002 L25,9.16666667 C25,4.10405646 29.1122239,0 34.1706748,0 L37.8293252,0 C42.894149,0 47,4.10294333 47,9.16666667 L47,15.0000002 C47.5523491,15.0003779 48,15.4512014 48,15.990778 L48,21 C47.6990417,24.1501803 46.2223783,26.9553436 44,28.944426" id="Rectangle-47" stroke="#7E868D" sketch:type="MSShapeGroup"></path>
            </g>
        </g>
    </g>
</svg>