<?xml version="1.0" encoding="UTF-8" standalone="no"?>
<svg width="60px" height="60px" viewBox="0 0 60 60" version="1.1" xmlns="http://www.w3.org/2000/svg" xmlns:xlink="http://www.w3.org/1999/xlink" xmlns:sketch="http://www.bohemiancoding.com/sketch/ns">
    <!-- Generator: Sketch 3.3.1 (12002) - http://www.bohemiancoding.com/sketch -->
    <title>go_to_pro</title>
    <desc>Created with Sketch.</desc>
    <defs></defs>
    <g id="Page-3" stroke="none" stroke-width="1" fill="none" fill-rule="evenodd" sketch:type="MSPage">
        <g id="Artboard-2" sketch:type="MSArtboardGroup" transform="translate(-16.000000, -349.000000)">
            <path d="M24.6843478,379.346957 L24.6843478,373.164348 L29.1191304,373.164348 C32.8756522,373.164348 34.9626087,370.581739 34.9626087,367.555652 C34.9626087,364.503478 32.9017391,361.946957 29.1191304,361.946957 L20.98,361.946957 L20.98,379.346957 L24.6843478,379.346957 L24.6843478,379.346957 Z M28.6234783,369.903478 L24.6843478,369.903478 L24.6843478,365.207826 L28.6234783,365.207826 C30.0843478,365.207826 31.18,366.094783 31.18,367.555652 C31.18,368.990435 30.0843478,369.903478 28.6234783,369.903478 L28.6234783,369.903478 L28.6234783,369.903478 Z M51.3452174,379.346957 L47.4321739,372.72087 C49.3104348,372.277391 51.2408696,370.633913 51.2408696,367.555652 C51.2408696,364.32087 49.0234783,361.946957 45.3973913,361.946957 L37.2582609,361.946957 L37.2582609,379.346957 L40.9626087,379.346957 L40.9626087,373.164348 L43.6756522,373.164348 L47.0930435,379.346957 L51.3452174,379.346957 L51.3452174,379.346957 Z M44.8495652,369.903478 L40.9626087,369.903478 L40.9626087,365.207826 L44.8495652,365.207826 C46.3365217,365.207826 47.4582609,366.094783 47.4582609,367.555652 C47.4582609,369.016522 46.3365217,369.903478 44.8495652,369.903478 L44.8495652,369.903478 L44.8495652,369.903478 Z M62.2756522,379.66 C67.5452174,379.66 71.38,375.903478 71.38,370.66 C71.38,365.416522 67.5452174,361.66 62.2756522,361.66 C57.0321739,361.66 53.1973913,365.416522 53.1973913,370.66 C53.1973913,375.903478 57.0321739,379.66 62.2756522,379.66 L62.2756522,379.66 L62.2756522,379.66 Z M62.2756522,376.373043 C59.0669565,376.373043 57.006087,373.894783 57.006087,370.66 C57.006087,367.39913 59.0669565,364.946957 62.2756522,364.946957 C65.4843478,364.946957 67.5713043,367.39913 67.5713043,370.66 C67.5713043,373.894783 65.4843478,376.373043 62.2756522,376.373043 L62.2756522,376.373043 L62.2756522,376.373043 Z" id="PRO" fill="#7E868D" sketch:type="MSShapeGroup"></path>
            <path d="M61,393.8276 L68.416,398.3 L66.454,389.8652 L73,384.1928 L64.3708,383.4524 L61,375.5 L57.6292,383.4524 L49,384.1928 L55.546,389.8652 L53.584,398.3 L61,393.8276 L61,393.8276 Z" id="Shape" stroke="#4A90E2" stroke-width="2" fill="#EDF6FD" sketch:type="MSShapeGroup"></path>
        </g>
    </g>
</svg>