<svg xmlns="http://www.w3.org/2000/svg" width="60" height="60" viewBox="0 0 60 60"><g fill="none" fill-rule="evenodd"><path fill="#7E868D" d="M2 3c0-.56.44-1 1-1h54c.55 0 1 .45 1 1v22c0 .56-.44 1-1 1H3c-.55 0-1-.45-1-1V3zM0 3v22c0 1.66 1.34 3 3 3h54c1.66 0 3-1.34 3-3V3c0-1.66-1.34-3-3-3H3C1.34 0 0 1.34 0 3z"/><text fill="#7E868D" font-family="Proxima Nova" font-size="14" font-weight="bold"><tspan x="6" y="21">cmd</tspan></text><rect width="30" height="28" y="32" fill="#FF6B38" fill-opacity=".1" rx="3"/><path fill="#FF6B38" d="M2 35c0-.55.45-1 1-1h24c.56 0 1 .45 1 1v22c0 .55-.45 1-1 1H3c-.56 0-1-.45-1-1V35zm-2 0v22c0 1.66 1.34 3 3 3h24c1.66 0 3-1.34 3-3V35c0-1.66-1.34-3-3-3H3c-1.66 0-3 1.34-3 3z"/><text fill="#FF6B38" font-family="Proxima Nova" font-size="21" font-weight="bold"><tspan x="9" y="53">E</tspan></text><g fill="#FF6B38"><path d="M37 43h18l-5 4h-8l-5-4zm8-5h2l2 5h-6l2-5zm-3 9h8l1.37 4.1c.35 1.05-.18 1.5-1.15 1L46 50l-4.22 2.1c-.98.5-1.5.05-1.15-1L42 47z" opacity=".1"/><path d="M53.75 42.27h-.12l-5.13-.12.46.32-1.77-4.62c-.2-.5-.7-.85-1.2-.85-.6 0-1.1.36-1.2.9L43 42.47l.46-.32-5.2.12h-.06c-.7 0-1.25.54-1.25 1.22 0 .4.2.8.57 1l4.1 2.9-.2-.6L40 51.4c-.05.1-.1.3-.1.5 0 .67.57 1.2 1.25 1.2.3 0 .56-.1.77-.25l4.34-2.76h-.54l4.37 2.8c.2.1.4.2.7.2.7 0 1.2-.6 1.2-1.2 0-.2-.1-.4-.2-.6l-1.46-4.5-.2.52 4.14-2.9c.33-.2.55-.6.55-1 0-.3-.23-.5-.5-.5s-.5.2-.5.5c0 .06-.05.12-.1.17l-4.17 2.9c-.2.13-.28.35-.2.56l1.5 4.57.02.2c0 .13-.13.23-.27.23-.04 0-.1 0-.14-.03l-4.4-2.8c-.17-.1-.37-.1-.54 0L41.24 52c-.08.07-.14.08-.2.08-.14 0-.25-.1-.25-.2v-.1l1.5-4.67c.02-.2 0-.4-.2-.5L38 43.7c-.1-.1-.14-.1-.14-.2s.1-.2.23-.2l5.22-.1c.2 0 .4-.2.47-.38l1.77-4.6c.1-.1.2-.2.3-.2s.2.1.2.2l1.8 4.6c.1.2.3.3.5.37l5.15.1h.1c.13 0 .24.1.24.2 0 .24.2.5.5.5s.5-.26.5-.5c0-.7-.6-1.26-1.28-1.26z"/></g><path fill="#7E868D" d="M51 16h-1v-4h1c1.66 0 3-1.34 3-3s-1.34-3-3-3-3 1.34-3 3v1h-4V9c0-1.66-1.34-3-3-3s-3 1.34-3 3 1.34 3 3 3h1v4h-1c-1.66 0-3 1.34-3 3s1.34 3 3 3 3-1.34 3-3v-1h4v1c0 1.66 1.34 3 3 3s3-1.34 3-3c0-.83-.34-1.58-.88-2.12S51.82 16 51 16zm-9 3.5c0 .28-.22.5-.5.5h-1c-.28 0-.5-.22-.5-.5v-1c0-.28.22-.5.5-.5H42v1.5zm8-11c0-.28.22-.5.5-.5h1c.27 0 .5.22.5.5v1c0 .28-.23.5-.5.5H50V8.5zM40.5 10c-.28 0-.5-.22-.5-.5v-1c0-.28.22-.5.5-.5h1c.28 0 .5.22.5.5V10h-1.5zm7.5 6h-4v-4h4v4zm4 3.5c0 .27-.22.5-.5.5h-1c-.28 0-.5-.23-.5-.5V18h1.5c.28 0 .5.22.5.5v1z"/></g></svg>