<?xml version="1.0" encoding="UTF-8" standalone="no"?>
<svg width="60px" height="60px" viewBox="0 0 60 60" version="1.1" xmlns="http://www.w3.org/2000/svg" xmlns:xlink="http://www.w3.org/1999/xlink" xmlns:sketch="http://www.bohemiancoding.com/sketch/ns">
    <!-- Generator: Sketch 3.3.1 (12002) - http://www.bohemiancoding.com/sketch -->
    <title>nested-collection</title>
    <desc>Created with Sketch.</desc>
    <defs></defs>
    <g id="Page-3" stroke="none" stroke-width="1" fill="none" fill-rule="evenodd" sketch:type="MSPage">
        <g id="Artboard-2" sketch:type="MSArtboardGroup" transform="translate(-338.000000, -245.000000)">
            <g id="nested-collection" sketch:type="MSLayerGroup" transform="translate(339.000000, 248.000000)">
                <g id="Rectangle-30-+-Rectangle-29-Copy" sketch:type="MSShapeGroup">
                    <path d="M28,8 L59,8 L59,15 L34,15 L28,8 Z" id="Rectangle-30"></path>
                    <path d="M27,7 L55.9977147,7 C57.1035463,7 58,7.88670635 58,8.99810135 L58,15" id="Rectangle-30" stroke="#32BA88" stroke-width="2" stroke-linecap="round" stroke-linejoin="round"></path>
                    <path d="M0,1.99690951 C0,0.89404684 0.889673948,0 1.991155,0 L20.008845,0 C21.1085295,0 22.5235638,0.732989281 23.1666982,1.63337746 L30.8333018,12.3666225 C31.4776514,13.268712 32.8949789,14 33.9970047,14 L58,14 L58,40.000014 C58,47.179708 52.1731814,53 45.0017276,53 L1.99649128,53 C0.893859594,53 0,52.1023238 0,51.0030905 L0,1.99690951 Z" id="Rectangle-29" stroke="#32BA88" stroke-width="2"></path>
                </g>
                <circle id="Oval-17" stroke="#32BA88" stroke-width="2" fill="#E1F4ED" sketch:type="MSShapeGroup" cx="46" cy="41" r="12"></circle>
                <path d="M46,35.5 L46,46.5500002" id="Line" stroke="#32BA88" stroke-width="2" stroke-linecap="square" sketch:type="MSShapeGroup"></path>
                <path d="M40.5,41 L51.5500002,41" id="Line" stroke="#32BA88" stroke-width="2" stroke-linecap="square" sketch:type="MSShapeGroup"></path>
            </g>
        </g>
    </g>
</svg>