<?xml version="1.0" encoding="UTF-8" standalone="no"?>
<svg width="60px" height="60px" viewBox="0 0 60 60" version="1.1" xmlns="http://www.w3.org/2000/svg" xmlns:xlink="http://www.w3.org/1999/xlink" xmlns:sketch="http://www.bohemiancoding.com/sketch/ns">
    <!-- Generator: Sketch 3.3.1 (12002) - http://www.bohemiancoding.com/sketch -->
    <title>no-bookmarks</title>
    <desc>Created with Sketch.</desc>
    <defs></defs>
    <g id="Page-3" stroke="none" stroke-width="1" fill="none" fill-rule="evenodd" sketch:type="MSPage">
        <g id="Artboard-2" sketch:type="MSArtboardGroup" transform="translate(-16.000000, -233.000000)">
            <g id="no-bookmarks" sketch:type="MSLayerGroup" transform="translate(22.000000, 234.000000)">
                <rect id="Rectangle-40" fill="#EDF6FD" sketch:type="MSShapeGroup" x="1" y="1" width="32" height="10"></rect>
                <path d="M34,32 L34,1.99306965 C34,0.902308181 33.1046051,0 32.0000796,0 L1.9999204,0 C0.891941149,0 0,0.892327676 0,1.99306965 L0,54.0069304 C0,55.0976918 0.648923157,55.3892488 1.44941044,54.635849 L15.5505896,41.364151 C16.3543386,40.6076813 17.6489232,40.6107512 18.4494104,41.364151 L25,47.5294118 L25,34.0049466 C25,32.8976452 25.8970262,32 27.0049466,32 L34,32 Z M0.53125,12 L33.4858825,12 L0.53125,12 Z" id="Rectangle-12" stroke="#4990E2" stroke-width="2" sketch:type="MSShapeGroup"></path>
                <rect id="Rectangle-17" stroke="#4990E2" stroke-width="2" fill="#EEF7FD" sketch:type="MSShapeGroup" x="25" y="32" width="24" height="24" rx="2"></rect>
                <path d="M37,38.9999998 L31.5,44.5 L37,38.9999998 L42.5,44.5 L37,38.9999998 Z M37,38.9999998 L37.0226803,38.9773195 L37,38.9999998 L36.9773197,38.9773195 L37,38.9999998 Z M37,40.5 L37,55.5 L37,40.5 Z" id="Line" stroke="#4990E2" stroke-width="2" stroke-linecap="round" stroke-linejoin="round" sketch:type="MSShapeGroup"></path>
            </g>
        </g>
    </g>
</svg>