<?xml version="1.0" encoding="UTF-8" standalone="no"?>
<svg width="60px" height="60px" viewBox="0 0 60 60" version="1.1" xmlns="http://www.w3.org/2000/svg" xmlns:xlink="http://www.w3.org/1999/xlink" xmlns:sketch="http://www.bohemiancoding.com/sketch/ns">
    <!-- Generator: Sketch 3.3.1 (12002) - http://www.bohemiancoding.com/sketch -->
    <title>trash_empty</title>
    <desc>Created with Sketch.</desc>
    <defs></defs>
    <g id="Page-3" stroke="none" stroke-width="1" fill="none" fill-rule="evenodd" sketch:type="MSPage">
        <g id="Artboard-2" sketch:type="MSArtboardGroup" transform="translate(-124.000000, -349.000000)">
            <g id="Group" sketch:type="MSLayerGroup" transform="translate(135.000000, 358.000000)">
                <rect id="Rectangle-82" fill="#ECEEF1" sketch:type="MSShapeGroup" x="4" y="10" width="20" height="24"></rect>
                <path d="M26,10 L26,32 C26,34.2 24.2,36 22,36 L6,36 C3.8,36 2,34.2 2,32 L2,10 L0,10 L0,4 L28,4 L28,10 L26,10 L26,10 Z M2,6 L26,6 L26,8 L2,8 L2,6 L2,6 Z M4,10 L24,10 L24,31.995054 C24,33.102354 23.088672,34 22.009204,34 L5.990796,34 C4.89131,34 4,33.088478 4,31.995054 L4,10 L4,10 Z M8,0 L20,0 L20,4 L8,4 L8,0 L8,0 Z M10,2 L18,2 L18,4 L10,4 L10,2 L10,2 Z" id="Shape" fill="#7E868D" sketch:type="MSShapeGroup"></path>
                <circle id="Oval-34" stroke="#4A90E2" stroke-width="2" fill="#EDF6FD" sketch:type="MSShapeGroup" cx="27" cy="30" r="12"></circle>
                <path d="M26.59,32.58 L22.42,28.41 L21,29.82 L26.59,35.41 L38.59,23.41 L37.18,22 L26.59,32.58 Z" id="Shape" fill="#4A90E2" sketch:type="MSShapeGroup"></path>
            </g>
        </g>
    </g>
</svg>